# xmcd CD database file
#
# Track frame offsets:
#	150
#	25964
#	68492
#	100048
#	125476
#	155910
#	183669
#	237261
#
# Disc length: 3531 seconds
#
# Revision: 0
# Processed by: cddbd v1.5.2PL0 Copyright (c) Steve Scherf et al.
# Submitted via: CDex 1.70beta2
#
DISCID=670dc908
DTITLE=Bruford Levin Upper Extremities - Blue Nights [CD 2)
DYEAR=2000
DGENRE=Jazz
TTITLE0=Fin de siécle
TTITLE1=Picnic Of Vesuvius
TTITLE2=Cerulean Sea
TTITLE3=BentTaquasim - Torn Drumbass
TTITLE4=Cracking The Midnight Glass
TTITLE5=President's Day
TTITLE6=3 Minutes of Pure Entertainment
TTITLE7=Outer Blue
EXTD=YEAR: 2000
EXTT0=
EXTT1=
EXTT2=
EXTT3=
EXTT4=
EXTT5=
EXTT6=
EXTT7=
PLAYORDER=
